<?xml version="1.0" encoding="utf-8"?>
<!-- Generator: Adobe Illustrator 19.2.0, SVG Export Plug-In . SVG Version: 6.00 Build 0)  -->
<svg version="1.1" id="Layer_1" xmlns="http://www.w3.org/2000/svg" xmlns:xlink="http://www.w3.org/1999/xlink" x="0px" y="0px"
	 viewBox="0 0 158 105.6" style="enable-background:new 0 0 158 105.6;" xml:space="preserve">
<style type="text/css">
	.st0{fill:#333333;}
</style>
<g>
	<path class="st0" d="M140.1,39.8c-1.1-8.3-5-16-11-21.7c-6.7-6.3-15.4-9.8-24.5-9.8c-1.4,0-2.9,0.1-4.4,0.3
		c-7-5.4-15.6-8.4-24.4-8.4c-9.4,0-18.6,3.4-25.8,9.5C39.2,10.5,28.9,15,21,22.5C12.9,30,7.8,40,6.3,50.9C2.2,56,0,62.4,0,68.9
		c0,15.4,12.1,28,27.1,28.7c7.8,5.2,16.7,7.9,26.1,7.9c11.7,0,22.9-4.4,31.6-12.3h29.8c4.3,2.4,9.2,3.7,14.1,3.7
		c16.2,0,29.3-13.3,29.3-29.7C158,55.1,150.9,44.4,140.1,39.8L140.1,39.8z M128.7,89.8c-4,0-7.9-1.1-11.4-3.2
		c-0.5-0.3-1.1-0.5-1.8-0.5h-26c0.7-1.9,1.1-4,1.1-6.1c0-4.5-1.7-8.8-4.9-12c-1.3-1.3-3.4-1.3-4.6,0c-1.3,1.3-1.3,3.4,0,4.7
		c1.9,1.9,3,4.5,3,7.3c0,2.4-0.8,4.7-2.3,6.6c-0.3,0.1-0.5,0.3-0.7,0.5c-7.6,7.3-17.5,11.3-27.9,11.3c-8.3,0-16.2-2.5-23-7.3
		C30.1,91,30,91,29.9,90.9c-4.5-5.2-4.3-13.2,0.6-18.2c1.3-1.3,1.3-3.4,0-4.7c-1.3-1.3-3.4-1.3-4.6,0c-5.7,5.7-7.2,14.1-4.5,21.3
		C13,86.4,6.9,78.3,6.9,68.8c0-5.2,1.9-10.3,5.3-14.2c0.5-0.5,0.8-1.2,0.8-1.9c1.1-9.6,5.5-18.5,12.5-25.1c5.3-5.1,11.9-8.5,19-10.1
		c-0.8,2.2-1.3,4.6-1.3,7c0,5.2,2,10.1,5.6,13.7c0.6,0.7,1.5,1,2.3,1s1.7-0.3,2.3-1c1.3-1.3,1.3-3.4,0-4.7c-2.4-2.4-3.7-5.6-3.7-9
		c0-3.1,1.1-6,3.1-8.3c0.2-0.1,0.4-0.3,0.6-0.4c6.1-5.5,14-8.6,22.1-8.6c5.9,0,11.6,1.6,16.7,4.5c-4.3,3.1-6.8,8.4-6.1,14.1
		c0.2,1.7,1.6,2.9,3.3,2.9c0.1,0,0.3,0,0.4,0c1.8-0.2,3.1-1.9,2.8-3.7c-0.6-4.5,2.6-8.7,7.1-9.3c0.2,0,0.3-0.1,0.5-0.1
		c1.5-0.2,2.9-0.3,4.1-0.3c13.7,0,25.4,9.8,28.3,23.1c-6.7,0-13.1,4.1-15.7,10.9c-0.7,1.7,0.2,3.6,1.9,4.3c0.4,0.2,0.8,0.2,1.2,0.2
		c1.3,0,2.6-0.8,3.1-2.1c1.8-4.8,6.8-7.4,11.7-6.3c0.3,0.2,0.5,0.3,0.9,0.4c9.2,3.1,15.3,11.7,15.3,21.5
		C151.1,79.7,141,89.8,128.7,89.8L128.7,89.8z"/>
	<path class="st0" d="M135.4,62.7c-6.7,0-12.1,5.5-12.1,12.3c0,1.8,1.5,3.3,3.3,3.3s3.3-1.5,3.3-3.3c0-3.1,2.5-5.6,5.6-5.6
		c1.8,0,3.3-1.5,3.3-3.3C138.7,64.2,137.3,62.7,135.4,62.7L135.4,62.7z"/>
	<path class="st0" d="M59.7,58.7c-8,0-14.4,6.6-14.4,14.6c0,1.8,1.5,3.3,3.3,3.3s3.3-1.5,3.3-3.3c0-4.4,3.5-8,7.9-8
		c1.8,0,3.3-1.5,3.3-3.3C63,60.2,61.6,58.7,59.7,58.7L59.7,58.7z"/>
	<path class="st0" d="M99,48c-3.9-8.8-14.1-12.7-22.8-8.8c-1.7,0.8-2.4,2.7-1.7,4.4c0.7,1.7,2.7,2.4,4.3,1.7
		c5.4-2.4,11.7,0,14.1,5.4c0.5,1.2,1.7,2,3,2c0.5,0,0.9-0.1,1.3-0.3C99,51.6,99.8,49.6,99,48L99,48z"/>
</g>
</svg>
