<?xml version="1.0" encoding="utf-8"?>
<!-- Generator: Adobe Illustrator 19.2.0, SVG Export Plug-In . SVG Version: 6.00 Build 0)  -->
<svg version="1.1" id="Layer_1" xmlns="http://www.w3.org/2000/svg" xmlns:xlink="http://www.w3.org/1999/xlink" x="0px" y="0px"
	 viewBox="0 0 256 256" style="enable-background:new 0 0 256 256;" xml:space="preserve">
<style type="text/css">
	.st0{fill:#333333;}
	.st1{font-family:'Gotham-Light';}
	.st2{font-size:39.7883px;}
	.st3{fill:#CB19C0;}
</style>
<text transform="matrix(1 0 0 1 59.96 198.3779)" class="st0 st1 st2">BeSlim</text>
<path class="st3" d="M168.4,64.6c-4.3-6.6-11.1-11-18.6-12.6l0.2-1.8c1.1-0.6,1.8-1.5,1.9-2.6c0.1-1.2-0.4-2.3-1.5-3.1
	c-0.8-0.7-2-1.1-3.1-1.2c-2.8-0.3-5.2,1.2-5.4,3.3c-0.1,1.1,0.4,2.2,1.3,3l-0.2,2c-3.6,0.1-7.1,0.9-10.4,2.3l-1.8-2.7
	c0.9-1.7,0.9-3.5,0-4.8c-0.8-1.3-2.2-2-4.2-1.9c-1.5,0-3.2,0.6-4.7,1.6c-3.4,2.2-4.8,5.8-3.2,8.3c0.9,1.4,2.5,2,4.4,1.9l1.7,2.5
	c-10.8,9.4-13.3,25.6-5.2,37.9c5.4,8.3,14.6,13.2,24.4,13.2c0.8,0,1.5-0.1,2.3-0.2c1.1,4.7,3.1,9.4,5.9,13.9c0.6,0.9,1.3,2,2,3.2
	c-8.3,3.3-17.6,5.1-27,5.1h0c-9.8,0-19.4-1.9-27.9-5.5c0.6-1.1,1.2-2,1.8-2.9c17.6-27.3-3.8-51.3-4-51.5c-0.7-0.7-1.7-0.8-2.5-0.1
	c-0.7,0.7-0.8,1.8-0.1,2.5c0.8,0.9,19.8,22.2,3.7,47.3c-3.3,5.1-9.4,14.7-8.4,25.6c0.1,0.9,0.9,1.6,1.7,1.6c0.1,0,0.1,0,0.2,0
	c1-0.1,1.7-0.9,1.6-1.9c-0.6-6.5,1.8-12.6,4.3-17.4c9,3.8,19.3,5.9,29.7,5.9h0c10.1,0,20-1.9,28.8-5.5c2.5,4.7,4.7,10.7,4.1,17
	c-0.1,1,0.6,1.8,1.6,1.9c0.1,0,0.1,0,0.2,0c0.9,0,1.6-0.7,1.7-1.6c1-10.9-5.1-20.5-8.4-25.6c-2.6-4-4.4-8.2-5.4-12.4
	c3.6-0.7,7.1-2.1,10.2-4.2C173.5,96.3,177.2,78.1,168.4,64.6L168.4,64.6z M146.8,46.8c0.6,0.1,1.1,0.3,1.3,0.4
	c-0.1,0-0.2,0.1-0.3,0.1c-0.6,0.2-1,0.6-1.2,1.1c-0.1-0.6-0.4-1.1-1-1.3c-0.1,0-0.2-0.1-0.3-0.2C145.7,46.9,146.2,46.7,146.8,46.8
	L146.8,46.8z M125.4,53.3c-0.4-0.6-1.1-0.9-1.8-0.8c-1,0.2-1.8,0.1-2-0.2c-0.3-0.5,0.3-2.1,2.2-3.4c0.9-0.6,2-1,2.9-1
	c0.5,0,1,0.1,1.1,0.3c0.2,0.3,0.1,1-0.6,1.9c-0.4,0.6-0.4,1.4,0,2l2.2,3.3c-0.5,0.3-0.9,0.5-1.4,0.8c-0.2,0.1-0.3,0.2-0.4,0.3
	L125.4,53.3z M144,106.4c-8.7,0-16.7-4.3-21.5-11.6c-7.8-11.8-4.4-27.8,7.4-35.6c4.2-2.8,9.1-4.2,14.1-4.2c8.7,0,16.7,4.3,21.5,11.6
	c7.8,11.9,4.4,27.8-7.4,35.6C153.9,104.9,149,106.4,144,106.4L144,106.4z M157.3,100c-4,2.6-8.4,3.8-12.8,3.8
	c-7.7,0-15.2-3.7-19.7-10.6c-5.3-8.1-5.1-18.8,0.6-26.6c0.6-0.8,1.7-1,2.4-0.4c0.8,0.6,1,1.7,0.4,2.4c-4.8,6.7-5,15.8-0.5,22.7
	c6,9.2,18.5,11.8,27.7,5.7c9.2-6,11.8-18.5,5.8-27.7c-0.5-0.8-0.3-1.9,0.5-2.4c0.8-0.5,1.9-0.3,2.4,0.5
	C171.2,78.3,168.1,92.9,157.3,100L157.3,100z M140.6,77.7c-0.4,0.5-0.6,1.1-0.8,1.7c-0.3,1.2,0,2.5,0.7,3.5c0.9,1.3,2.3,2.1,3.9,2.1
	c0.9,0,1.8-0.3,2.6-0.8c2.2-1.4,2.8-4.3,1.3-6.5c-1-1.6-3-2.3-4.8-2L134,61.2c-0.5-0.8-1.6-1-2.4-0.5c-0.8,0.5-1,1.6-0.5,2.4
	L140.6,77.7z M145.1,81.4c-0.5,0.3-1.3,0.2-1.7-0.3c-0.2-0.3-0.2-0.6-0.2-0.9c0.1-0.3,0.2-0.6,0.5-0.8c0.2-0.1,0.4-0.2,0.7-0.2
	c0.4,0,0.8,0.2,1,0.5C145.8,80.3,145.6,81,145.1,81.4L145.1,81.4z M126.7,124.5c-2,0-3.6-1.6-3.6-3.6c0-2,1.6-3.6,3.6-3.6
	c2,0,3.6,1.6,3.6,3.6C130.3,122.9,128.6,124.5,126.7,124.5L126.7,124.5z M89.8,101.3h-7V90.3h7v-4.4l9.9,9.9l-9.9,9.9V101.3z
	 M89.8,101.3"/>
</svg>
