<?xml version="1.0" encoding="utf-8"?>
<!-- Generator: Adobe Illustrator 19.2.0, SVG Export Plug-In . SVG Version: 6.00 Build 0)  -->
<svg version="1.1" id="Layer_1" xmlns="http://www.w3.org/2000/svg" xmlns:xlink="http://www.w3.org/1999/xlink" x="0px" y="0px"
	 viewBox="0 0 256 256" style="enable-background:new 0 0 256 256;" xml:space="preserve">
<style type="text/css">
	.st0{fill:#333333;}
	.st1{font-family:'Gotham-Light';}
	.st2{font-size:39.7883px;}
	.st3{fill:#EB4D51;}
</style>
<text transform="matrix(1 0 0 1 56.5781 198.3779)" class="st0 st1 st2">D’Soup</text>
<g>
	<path class="st3" d="M124.5,77.2c-1.2,0.6-1.7,2-1.1,3.2c0.4,0.8,1.3,1.3,2.1,1.3c0.4,0,0.7-0.1,1.1-0.3c0.2-0.1,6.1-3.1,6.1-9.3
		c0-3.4-1.8-5.2-3.1-6.5c-1.2-1.2-1.7-1.7-1.7-3.1c0-1.3,0.5-1.9,1.7-3.1c1.3-1.3,3.1-3.1,3.1-6.5c0-6.2-5.9-9.2-6.1-9.3
		c-1.2-0.6-2.6-0.1-3.2,1.1c-0.6,1.2-0.1,2.6,1,3.2c0,0,3.5,1.8,3.5,5c0,1.3-0.5,1.9-1.7,3.1c-1.3,1.3-3.1,3.1-3.1,6.5
		c0,3.4,1.8,5.2,3.1,6.5c1.2,1.2,1.7,1.7,1.7,3.1C128,75.4,124.6,77.2,124.5,77.2L124.5,77.2z M124.5,77.2"/>
	<path class="st3" d="M108.9,77c0,3.2-3.4,5-3.5,5c-1.2,0.6-1.6,2-1.1,3.2c0.4,0.8,1.3,1.3,2.1,1.3c0.4,0,0.7-0.1,1.1-0.3
		c0.2-0.1,6.1-3.1,6.1-9.3c0-3.4-1.8-5.2-3.1-6.5c-1.2-1.2-1.7-1.7-1.7-3.1c0-3.2,3.4-5,3.5-5c1.2-0.6,1.7-2,1.1-3.2
		c-0.6-1.2-2-1.7-3.2-1.1c-0.2,0.1-6.1,3.1-6.1,9.3c0,3.4,1.8,5.2,3.1,6.5C108.3,75.1,108.9,75.6,108.9,77L108.9,77z M108.9,77"/>
	<path class="st3" d="M147.1,77c0,3.2-3.4,5-3.5,5c-1.2,0.6-1.6,2-1.1,3.2c0.4,0.8,1.3,1.3,2.1,1.3c0.4,0,0.7-0.1,1.1-0.3
		c0.3-0.1,6.1-3.1,6.1-9.3c0-3.4-1.8-5.2-3.1-6.5c-1.2-1.2-1.7-1.7-1.7-3.1c0-3.2,3.4-5,3.5-5c1.2-0.6,1.7-2,1.1-3.2
		c-0.6-1.2-2-1.7-3.2-1.1c-0.3,0.1-6.1,3.1-6.1,9.3c0,3.4,1.8,5.2,3.1,6.5C146.6,75.1,147.1,75.6,147.1,77L147.1,77z M147.1,77"/>
	<path class="st3" d="M89.7,100.9c1.6,0,3.1,0.8,4,2.2c0.7,1.1,2.1,1.4,3.2,0.8c1.9-1.1,4.1-0.7,5.6,0.6c0.7,0.6,1.7,0.8,2.5,0.5
		c0.9-0.3,1.4-1.1,1.5-2.1c0.2-2.5,2.3-4.5,4.7-4.5c1.6,0,3.1,0.8,4,2.1c0.9,1.3,3.1,1.3,4,0c1.6-2.5,5.4-2.8,7.5-0.6
		c0.6,0.6,1.4,0.9,2.2,0.7c0.8-0.2,1.5-0.7,1.8-1.5c0.7-1.9,2.5-3.1,4.5-3.1c2.6,0,4.8,2.1,4.8,4.7c0,0.1,0,0.3,0,0.3
		c-0.1,0.8,0.3,1.6,0.9,2.1c0.6,0.5,1.5,0.6,2.3,0.3c2.1-0.7,3.8-0.2,5.1,1.2c0.6,0.6,1.4,0.9,2.2,0.7c0.8-0.2,1.5-0.7,1.8-1.5
		c0.7-1.9,2.5-3.1,4.5-3.1c2.1,0,4,1.5,4.6,3.5c0.2,0.7,0.6,1.2,1.2,1.5c0.6,0.3,1.3,0.3,2,0.1c2.2-0.9,4.6,0,5.8,1.9
		c0.7,1.1,2.1,1.4,3.2,0.8c2.1-1.2,4.5-0.7,5.9,0.9c0.5,0.5,1.1,0.8,1.8,0.8c0.6,0,1.1-0.2,1.6-0.6c1-0.9,1.1-2.4,0.2-3.4
		c-2.5-2.7-6.4-3.9-9.9-2.7c-2.1-2.1-5.1-3.2-8-2.7c-1.7-3-4.8-4.9-8.3-4.9c-2.9,0-5.6,1.4-7.4,3.6c-1.5-0.8-3.2-1.2-4.8-1.2
		c-1.1-4.1-4.8-7.2-9.3-7.2c-2.9,0-5.6,1.4-7.4,3.5c-3.3-1.8-7.6-1.4-10.5,0.9c-1.7-1.3-3.8-2.1-6-2.1c-3.7,0-7,2.2-8.6,5.4
		c-2-0.7-4.2-0.8-6.2-0.2c-1.8-1.8-4.2-2.8-6.8-2.8c-1.3,0-2.4,1.1-2.4,2.4C87.3,99.8,88.4,100.9,89.7,100.9L89.7,100.9z
		 M89.7,100.9"/>
	<path class="st3" d="M197.4,115.3H58.6c-1.3,0-2.4,1.1-2.4,2.4c0,6.6,5.4,12,12,12h2.5c1.2,10.7,10.3,19.1,21.4,19.1h71.8
		c11.1,0,20.2-8.4,21.4-19.1h2.5c6.6,0,12-5.4,12-12C199.8,116.3,198.7,115.3,197.4,115.3L197.4,115.3z M187.8,124.8H183
		c-1.3,0-2.4,1.1-2.4,2.4c0,9.2-7.5,16.7-16.7,16.7H92.1c-8.4,0-15.4-6.2-16.6-14.4h97.9c1.3,0,2.4-1.1,2.4-2.4
		c0-1.3-1.1-2.4-2.4-2.4H68.2c-3.1,0-5.8-2-6.8-4.8h133.1C193.6,122.8,190.9,124.8,187.8,124.8L187.8,124.8z M187.8,124.8"/>
	<path class="st3" d="M57.7,95.9l33.5,14.4c0.3,0.1,0.6,0.2,0.9,0.2c0.9,0,1.8-0.5,2.2-1.5c0.5-1.2,0-2.6-1.3-3.1L59.6,91.5
		c-1.2-0.5-2.6,0-3.1,1.3C55.9,94,56.5,95.4,57.7,95.9L57.7,95.9z M57.7,95.9"/>
</g>
</svg>
