<?xml version="1.0" encoding="utf-8"?>
<!-- Generator: Adobe Illustrator 19.2.0, SVG Export Plug-In . SVG Version: 6.00 Build 0)  -->
<svg version="1.1" id="Layer_1" xmlns="http://www.w3.org/2000/svg" xmlns:xlink="http://www.w3.org/1999/xlink" x="0px" y="0px"
	 viewBox="0 0 90.4 105.6" style="enable-background:new 0 0 90.4 105.6;" xml:space="preserve">
<style type="text/css">
	.st0{fill:#CB19C0;}
</style>
<path class="st0" d="M85.6,21.3c-4.3-6.6-11.1-11-18.6-12.6l0.2-1.8c1.1-0.6,1.8-1.5,1.9-2.6c0.1-1.2-0.4-2.3-1.5-3.1
	c-0.8-0.7-2-1.1-3.1-1.2c-2.8-0.3-5.2,1.2-5.4,3.3c-0.1,1.1,0.4,2.2,1.3,3l-0.2,2c-3.6,0.1-7.1,0.9-10.4,2.3L48,7.9
	c0.9-1.7,0.9-3.5,0-4.8c-0.8-1.3-2.2-2-4.2-1.9c-1.5,0-3.2,0.6-4.7,1.6c-3.4,2.2-4.8,5.8-3.2,8.3c0.9,1.4,2.5,2,4.4,1.9l1.7,2.5
	c-10.8,9.4-13.3,25.6-5.2,37.9c5.4,8.3,14.6,13.2,24.4,13.2c0.8,0,1.5-0.1,2.3-0.2c1.1,4.7,3.1,9.4,5.9,13.9c0.6,0.9,1.3,2,2,3.2
	c-8.3,3.3-17.6,5.1-27,5.1l0,0c-9.8,0-19.4-1.9-27.9-5.5c0.6-1.1,1.2-2,1.8-2.9c17.6-27.3-3.8-51.3-4-51.5c-0.7-0.7-1.7-0.8-2.5-0.1
	c-0.7,0.7-0.8,1.8-0.1,2.5c0.8,0.9,19.8,22.2,3.7,47.3C12.1,83.5,6,93.1,7,104c0.1,0.9,0.9,1.6,1.7,1.6c0.1,0,0.1,0,0.2,0
	c1-0.1,1.7-0.9,1.6-1.9c-0.6-6.5,1.8-12.6,4.3-17.4c9,3.8,19.3,5.9,29.7,5.9l0,0c10.1,0,20-1.9,28.8-5.5c2.5,4.7,4.7,10.7,4.1,17
	c-0.1,1,0.6,1.8,1.6,1.9c0.1,0,0.1,0,0.2,0c0.9,0,1.6-0.7,1.7-1.6c1-10.9-5.1-20.5-8.4-25.6c-2.6-4-4.4-8.2-5.4-12.4
	c3.6-0.7,7.1-2.1,10.2-4.2C90.7,53,94.4,34.8,85.6,21.3L85.6,21.3z M64,3.5c0.6,0.1,1.1,0.3,1.3,0.4C65.2,3.9,65.1,4,65,4
	c-0.6,0.2-1,0.6-1.2,1.1c-0.1-0.6-0.4-1.1-1-1.3c-0.1,0-0.2-0.1-0.3-0.2C62.9,3.6,63.4,3.4,64,3.5L64,3.5z M42.6,10
	c-0.4-0.6-1.1-0.9-1.8-0.8c-1,0.2-1.8,0.1-2-0.2c-0.3-0.5,0.3-2.1,2.2-3.4c0.9-0.6,2-1,2.9-1c0.5,0,1,0.1,1.1,0.3
	c0.2,0.3,0.1,1-0.6,1.9c-0.4,0.6-0.4,1.4,0,2l2.2,3.3c-0.5,0.3-0.9,0.5-1.4,0.8c-0.2,0.1-0.3,0.2-0.4,0.3L42.6,10z M61.2,63.1
	c-8.7,0-16.7-4.3-21.5-11.6c-7.8-11.8-4.4-27.8,7.4-35.6c4.2-2.8,9.1-4.2,14.1-4.2c8.7,0,16.7,4.3,21.5,11.6
	c7.8,11.9,4.4,27.8-7.4,35.6C71.1,61.6,66.2,63.1,61.2,63.1L61.2,63.1z M74.5,56.7c-4,2.6-8.4,3.8-12.8,3.8
	c-7.7,0-15.2-3.7-19.7-10.6c-5.3-8.1-5.1-18.8,0.6-26.6c0.6-0.8,1.7-1,2.4-0.4c0.8,0.6,1,1.7,0.4,2.4c-4.8,6.7-5,15.8-0.5,22.7
	c6,9.2,18.5,11.8,27.7,5.7c9.2-6,11.8-18.5,5.8-27.7c-0.5-0.8-0.3-1.9,0.5-2.4s1.9-0.3,2.4,0.5C88.4,35,85.3,49.6,74.5,56.7
	L74.5,56.7z M57.8,34.4c-0.4,0.5-0.6,1.1-0.8,1.7c-0.3,1.2,0,2.5,0.7,3.5c0.9,1.3,2.3,2.1,3.9,2.1c0.9,0,1.8-0.3,2.6-0.8
	c2.2-1.4,2.8-4.3,1.3-6.5c-1-1.6-3-2.3-4.8-2l-9.5-14.5c-0.5-0.8-1.6-1-2.4-0.5c-0.8,0.5-1,1.6-0.5,2.4L57.8,34.4z M62.3,38.1
	c-0.5,0.3-1.3,0.2-1.7-0.3c-0.2-0.3-0.2-0.6-0.2-0.9c0.1-0.3,0.2-0.6,0.5-0.8c0.2-0.1,0.4-0.2,0.7-0.2c0.4,0,0.8,0.2,1,0.5
	C63,37,62.8,37.7,62.3,38.1L62.3,38.1z M43.9,81.2c-2,0-3.6-1.6-3.6-3.6s1.6-3.6,3.6-3.6s3.6,1.6,3.6,3.6S45.8,81.2,43.9,81.2
	L43.9,81.2z M7,58H0V47h7v-4.4l9.9,9.9L7,62.4V58z"/>
</svg>
