<?xml version="1.0" encoding="utf-8"?>
<!-- Generator: Adobe Illustrator 19.2.0, SVG Export Plug-In . SVG Version: 6.00 Build 0)  -->
<svg version="1.1" id="Layer_1" xmlns="http://www.w3.org/2000/svg" xmlns:xlink="http://www.w3.org/1999/xlink" x="0px" y="0px"
	 viewBox="0 0 256 256" style="enable-background:new 0 0 256 256;" xml:space="preserve">
<style type="text/css">
	.st0{fill:#333333;}
	.st1{font-family:'Gotham-Light';}
	.st2{font-size:39.7883px;}
	.st3{fill:#0084C2;}
</style>
<text transform="matrix(1 0 0 1 17.5459 198.3779)" class="st0 st1 st2">SmartChoc</text>
<g>
	<g>
		<path class="st3" d="M180.2,110.2l-23.3-23.3l1.1-0.3c0.7-0.2,1.2-0.8,1.4-1.5c0.2-0.7,0-1.5-0.5-2L148,72.3
			c-0.4-0.4-0.9-0.6-1.5-0.6c-0.5,0-1.1,0.2-1.5,0.6l-1.4,1.4l-29.8-29.8c-0.4-0.4-0.9-0.6-1.5-0.6c-0.6,0-1.1,0.2-1.5,0.6
			L93.4,61.5c0,0,0,0,0,0c0,0,0,0,0,0L75.8,79.1c-0.8,0.8-0.8,2.1,0,2.9l15.6,15.6c0,0,0,0,0,0c0,0,0,0,0,0l14.1,14.1l-1.4,1.4
			c-0.8,0.8-0.8,2.1,0,2.9l10.8,10.8c0.4,0.4,0.9,0.6,1.5,0.6c0.2,0,0.3,0,0.5-0.1c0.7-0.2,1.3-0.7,1.5-1.4l0.3-1.1l23.3,23.3
			c0.4,0.4,0.9,0.6,1.5,0.6c0.6,0,1.1-0.2,1.5-0.6l35.1-35.1C181,112.3,181,111,180.2,110.2L180.2,110.2z M126.1,91.2l-12.7-12.7
			l14.6-14.6l12.7,12.7L126.1,91.2z M112.4,48.3L125.1,61l-14.6,14.6L97.8,62.9L112.4,48.3z M94.9,65.9l12.7,12.7L92.9,93.2
			L80.2,80.5L94.9,65.9z M95.9,96.1l14.6-14.6l12.7,12.7l-14.6,14.6L95.9,96.1z M108.6,114.6l1.4-1.4h0l0,0l17.6-17.6c0,0,0,0,0,0
			c0,0,0,0,0,0l19-19l6.9,6.9l-12.3,3.8c-0.7,0.2-1.2,0.7-1.4,1.4l-4.5,14.6l-14.6,4.5c-0.7,0.2-1.2,0.7-1.4,1.4l-3.8,12.3
			L108.6,114.6z M143.6,143.8l-23.4-23.4l2.8-9l14.6-4.5c0.7-0.2,1.2-0.7,1.4-1.4l4.5-14.6l9-2.8l23.4,23.4L143.6,143.8z
			 M143.6,143.8"/>
	</g>
</g>
</svg>
