<?xml version="1.0" encoding="utf-8"?>
<!-- Generator: Adobe Illustrator 19.2.0, SVG Export Plug-In . SVG Version: 6.00 Build 0)  -->
<svg version="1.1" id="Layer_1" xmlns="http://www.w3.org/2000/svg" xmlns:xlink="http://www.w3.org/1999/xlink" x="0px" y="0px"
	 viewBox="0 0 256 256" style="enable-background:new 0 0 256 256;" xml:space="preserve">
<style type="text/css">
	.st0{fill:#333333;}
	.st1{fill:none;}
	.st2{font-family:'Gotham-Light';}
	.st3{font-size:39.7883px;}
</style>
<g>
	<path class="st0" d="M189.1,82.9c-1.1-8.3-5-16-11-21.7c-6.7-6.3-15.4-9.8-24.5-9.8c-1.4,0-2.9,0.1-4.4,0.3
		c-7-5.4-15.6-8.4-24.4-8.4c-9.4,0-18.6,3.4-25.8,9.5c-10.8,0.8-21.1,5.3-29,12.8C61.9,73.1,56.8,83.1,55.3,94
		c-4.1,5.1-6.3,11.5-6.3,18c0,15.4,12.1,28,27.1,28.7c7.8,5.2,16.7,7.9,26.1,7.9c11.7,0,22.9-4.4,31.6-12.3h29.8
		c4.3,2.4,9.2,3.7,14.1,3.7c16.2,0,29.3-13.3,29.3-29.7C207,98.2,199.9,87.5,189.1,82.9L189.1,82.9z M177.7,132.9
		c-4,0-7.9-1.1-11.4-3.2c-0.5-0.3-1.1-0.5-1.8-0.5h-26c0.7-1.9,1.1-4,1.1-6.1c0-4.5-1.7-8.8-4.9-12c-1.3-1.3-3.4-1.3-4.6,0
		c-1.3,1.3-1.3,3.4,0,4.7c1.9,1.9,3,4.5,3,7.3c0,2.4-0.8,4.7-2.3,6.6c-0.3,0.1-0.5,0.3-0.7,0.5c-7.6,7.3-17.5,11.3-27.9,11.3
		c-8.3,0-16.2-2.5-23-7.3c-0.1-0.1-0.2-0.1-0.3-0.2c-4.5-5.2-4.3-13.2,0.6-18.2c1.3-1.3,1.3-3.4,0-4.7c-1.3-1.3-3.4-1.3-4.6,0
		c-5.7,5.7-7.2,14.1-4.5,21.3c-8.4-2.9-14.5-11-14.5-20.5c0-5.2,1.9-10.3,5.3-14.2c0.5-0.5,0.8-1.2,0.8-1.9
		c1.1-9.6,5.5-18.5,12.5-25.1c5.3-5.1,11.9-8.5,19-10.1c-0.8,2.2-1.3,4.6-1.3,7c0,5.2,2,10.1,5.6,13.7c0.6,0.7,1.5,1,2.3,1
		s1.7-0.3,2.3-1c1.3-1.3,1.3-3.4,0-4.7c-2.4-2.4-3.7-5.6-3.7-9c0-3.1,1.1-6,3.1-8.3c0.2-0.1,0.4-0.3,0.6-0.4
		c6.1-5.5,14-8.6,22.1-8.6c5.9,0,11.6,1.6,16.7,4.5c-4.3,3.1-6.8,8.4-6.1,14.1c0.2,1.7,1.6,2.9,3.3,2.9c0.1,0,0.3,0,0.4,0
		c1.8-0.2,3.1-1.9,2.8-3.7c-0.6-4.5,2.6-8.7,7.1-9.3c0.2,0,0.3-0.1,0.5-0.1c1.5-0.2,2.9-0.3,4.1-0.3c13.7,0,25.4,9.8,28.3,23.1
		c-6.7,0-13.1,4.1-15.7,10.9c-0.7,1.7,0.2,3.6,1.9,4.3c0.4,0.2,0.8,0.2,1.2,0.2c1.3,0,2.6-0.8,3.1-2.1c1.8-4.8,6.8-7.4,11.7-6.3
		c0.3,0.2,0.5,0.3,0.9,0.4c9.2,3.1,15.3,11.7,15.3,21.5C200.1,122.8,190,132.9,177.7,132.9L177.7,132.9z"/>
	<path class="st0" d="M184.4,105.8c-6.7,0-12.1,5.5-12.1,12.3c0,1.8,1.5,3.3,3.3,3.3s3.3-1.5,3.3-3.3c0-3.1,2.5-5.6,5.6-5.6
		c1.8,0,3.3-1.5,3.3-3.3C187.7,107.3,186.3,105.8,184.4,105.8L184.4,105.8z"/>
	<path class="st0" d="M108.7,101.8c-8,0-14.4,6.6-14.4,14.6c0,1.8,1.5,3.3,3.3,3.3s3.3-1.5,3.3-3.3c0-4.4,3.5-8,7.9-8
		c1.8,0,3.3-1.5,3.3-3.3C112,103.3,110.6,101.8,108.7,101.8L108.7,101.8z"/>
	<path class="st0" d="M148,91.1c-3.9-8.8-14.1-12.7-22.8-8.8c-1.7,0.8-2.4,2.7-1.7,4.4c0.7,1.7,2.7,2.4,4.3,1.7
		c5.4-2.4,11.7,0,14.1,5.4c0.5,1.2,1.7,2,3,2c0.5,0,0.9-0.1,1.3-0.3C148,94.7,148.8,92.7,148,91.1L148,91.1z"/>
</g>
<rect y="169.3" class="st1" width="256" height="86.7"/>
<text transform="matrix(1 0 0 1 45.9971 198.3779)" class="st0 st2 st3">N’Hance</text>
</svg>
