<?xml version="1.0" encoding="utf-8"?>
<!-- Generator: Adobe Illustrator 19.2.0, SVG Export Plug-In . SVG Version: 6.00 Build 0)  -->
<svg version="1.1" id="Layer_1" xmlns="http://www.w3.org/2000/svg" xmlns:xlink="http://www.w3.org/1999/xlink" x="0px" y="0px"
	 viewBox="0 0 256 256" style="enable-background:new 0 0 256 256;" xml:space="preserve">
<style type="text/css">
	.st0{fill:#333333;}
	.st1{font-family:'Gotham-Light';}
	.st2{font-size:39.7883px;}
	.st3{fill:#EB8A23;}
</style>
<text transform="matrix(1 0 0 1 70.8228 198.3779)" class="st0 st1 st2">BFast</text>
<g>
	<path class="st3" d="M118.1,92.6c1.1,0,2-0.9,2-2v-7.1c0-0.3,0-0.6,0-0.9l0.6,0.6c0.4,0.4,0.9,0.6,1.4,0.6c0.5,0,1-0.2,1.4-0.6
		l0.6-0.6c0,0.3,0,0.6,0,0.9v7.1c0,1.1,0.9,2,2,2h7.1c6.8,0,12.4-5.6,12.4-12.4v-7.1c0-1.1-0.9-2-2-2h-7.1c-1.6,0-3.2,0.3-4.6,0.9
		c0.8-4-0.3-8.3-3.3-11.3l-5.1-5.1c-0.8-0.8-2-0.8-2.8,0l-5.1,5.1c-3.1,3.1-4.2,7.4-3.3,11.3c-1.4-0.6-2.9-0.9-4.5-0.9h-7.1
		c-1.1,0-2,0.9-2,1.9v7.2c0,6.8,5.6,12.4,12.4,12.4L118.1,92.6L118.1,92.6z M141.6,75v5.2c0,4.7-3.8,8.5-8.5,8.5h-5.2v-5.2
		c0-4.7,3.8-8.5,8.5-8.5H141.6z M118.4,63.4l3.7-3.7l3.7,3.7c3.3,3.3,3.3,8.7,0,12l-3.7,3.7l-3.7-3.7C115,72.1,115,66.7,118.4,63.4
		L118.4,63.4z M102.5,80.2V75h5.2c4.7,0,8.5,3.8,8.5,8.5v5.2H111C106.3,88.7,102.5,84.9,102.5,80.2L102.5,80.2z M102.5,80.2"/>
	<path class="st3" d="M127.9,107.8c-3.2,0-5.9,2.6-5.9,5.9h3.9c0-1.1,0.9-2,2-2c1.1,0,2,0.9,2,2h3.9
		C133.8,110.4,131.1,107.8,127.9,107.8L127.9,107.8z M127.9,107.8"/>
	<path class="st3" d="M143.5,109.7c-3.2,0-5.9,2.6-5.9,5.9h3.9c0-1.1,0.9-2,2-2c1.1,0,2,0.9,2,2h3.9
		C149.4,112.3,146.8,109.7,143.5,109.7L143.5,109.7z M143.5,109.7"/>
	<path class="st3" d="M158.2,102.3L165,77c0-0.2,0.1-0.3,0.1-0.5c0-2.2-1.8-3.9-3.9-3.9h-3.9c-0.7,0-1.4,0.2-2,0.5V45.3
		c0-1.1-0.9-2-2-2H92.8c0,0,0,0,0,0c0,0,0,0,0,0H79.1c-1.1,0-2,0.9-2,2v89.9c0,0.8,0.5,1.5,1.2,1.8l13.6,5.9
		c0.2,0.1,0.5,0.2,0.8,0.2c0,0,0,0,0,0c0,0,0,0,0,0h29.9c5.7,3.6,12.3,5.7,19.5,5.7c20.2,0,36.7-16.5,36.7-36.7v-0.2
		C178.9,105.9,166.8,103.4,158.2,102.3L158.2,102.3z M157.2,76.5h3.8l-7.2,27c0,0,0,0,0,0l-1.2,4.5c-0.3,1,0.4,2.1,1.4,2.4
		c0.2,0,0.3,0.1,0.5,0.1c0.9,0,1.7-0.6,1.9-1.5l0.7-2.8c13.3,1.6,17.8,4.7,17.8,5.6c0,1.9-11.2,6.4-32.8,6.4
		c-21.6,0-32.8-4.5-32.8-6.4c0-1.9,11.1-6.4,32.8-6.4c1.2,0,2.3,0,3.4,0.1l-0.4,1.5c-0.3,1.1,0.4,2.1,1.4,2.4c0.2,0,0.3,0.1,0.5,0.1
		c0.9,0,1.7-0.6,1.9-1.5l1-3.8l7.2-26.9C157.2,76.8,157.2,76.7,157.2,76.5L157.2,76.5z M90.7,138l-9.7-4.2V47.2h9.7V138z M117.5,139
		H94.7V47.2h56.6v36.4l-4.8,17.9c-1.4,0-2.9-0.1-4.4-0.1c-12.7,0-36.7,2.2-36.7,10.3v0.2c0,1.3,0.1,2.6,0.2,3.8
		c0,0.4,0.1,0.7,0.2,1.1c0.1,0.9,0.2,1.8,0.4,2.6c0.1,0.5,0.2,1,0.4,1.4c0.2,0.7,0.4,1.4,0.6,2.1c0.2,0.6,0.4,1.1,0.6,1.7
		c0.2,0.6,0.4,1.2,0.7,1.8c0.3,0.6,0.6,1.2,0.8,1.7c0.2,0.5,0.5,1,0.8,1.5c0.3,0.6,0.7,1.2,1,1.7c0.3,0.5,0.6,0.9,0.9,1.4
		c0.4,0.5,0.8,1.1,1.2,1.6c0.3,0.4,0.7,0.9,1.1,1.3c0.4,0.5,0.8,0.9,1.3,1.4c0.4,0.5,0.9,0.9,1.3,1.3
		C117.1,138.6,117.3,138.8,117.5,139L117.5,139z M142.2,144.7c-6.7,0-12.9-2-18.1-5.5c-0.2-0.2-0.5-0.3-0.7-0.5
		c-0.6-0.4-1.1-0.8-1.6-1.2c-0.2-0.2-0.4-0.3-0.6-0.5c-0.7-0.6-1.4-1.2-2-1.8c-0.1-0.1-0.2-0.2-0.4-0.4c-0.6-0.6-1.3-1.3-1.8-2
		c0,0-0.1-0.1-0.1-0.1c-0.6-0.8-1.2-1.5-1.8-2.4c-0.1-0.1-0.1-0.2-0.2-0.3c-1.1-1.6-2-3.4-2.8-5.2c-0.1-0.2-0.1-0.3-0.2-0.4
		c-0.4-0.9-0.7-1.8-1-2.7c0-0.1-0.1-0.2-0.1-0.4c-0.3-0.8-0.5-1.7-0.7-2.5c0-0.2-0.1-0.3-0.1-0.5c-0.1-0.4-0.1-0.9-0.2-1.4
		c7.5,3.9,23,5.1,32.4,5.1s24.9-1.2,32.4-5.1C172.1,132.6,158.5,144.7,142.2,144.7L142.2,144.7z M142.2,144.7"/>
</g>
</svg>
