<?xml version="1.0" encoding="utf-8"?>
<!-- Generator: Adobe Illustrator 19.2.0, SVG Export Plug-In . SVG Version: 6.00 Build 0)  -->
<svg version="1.1" id="Layer_1" xmlns="http://www.w3.org/2000/svg" xmlns:xlink="http://www.w3.org/1999/xlink" x="0px" y="0px"
	 viewBox="0 0 256 256" style="enable-background:new 0 0 256 256;" xml:space="preserve">
<style type="text/css">
	.st0{fill:#333333;}
	.st1{font-family:'Gotham-Light';}
	.st2{font-size:39.7883px;}
	.st3{fill:#8B1F22;}
</style>
<text transform="matrix(1 0 0 1 72.1953 198.3779)" class="st0 st1 st2">Ignite</text>
<g>
	<path class="st3" d="M119.4,138.8c0,1-0.8,1.8-1.8,1.8c-1,0-1.8-0.8-1.8-1.8c0-1,0.8-1.8,1.8-1.8
		C118.6,136.9,119.4,137.8,119.4,138.8L119.4,138.8z M119.4,138.8"/>
	<path class="st3" d="M149.3,116.9l-3.9-3.4V86.7l3.8-3.4c0.4-0.3,0.6-0.9,0.6-1.4v-5.9c0-0.1,0-0.2,0-0.3
		c-0.7-4.7-3.1-8.3-5.4-11.7c-2-3.1-3.8-5.8-4.2-9h1.2c1,0,1.8-0.8,1.8-1.8v-8.2c0-1-0.8-1.8-1.8-1.8h-26c-1,0-1.8,0.8-1.8,1.8v8.1
		c0,1,0.8,1.8,1.8,1.8h1.3c-0.3,3.5-2.5,6.4-4.7,9.5c-2.5,3.5-5.1,7-5,11.5v5.8c0,0.5,0.2,1,0.6,1.4l3.9,3.4v27l-3.9,3.4
		c-0.4,0.3-0.6,0.9-0.6,1.4V147c0,1,0.8,1.8,1.8,1.8h39.2c1,0,1.8-0.8,1.8-1.8v-28.7C149.9,117.8,149.7,117.3,149.3,116.9
		L149.3,116.9z M117.3,47h22.3v4.5h-22.3V47z M146.3,145.1h-35.5v-26l3.9-3.4c0.4-0.3,0.6-0.9,0.6-1.4V85.8c0-0.5-0.2-1-0.6-1.4
		l-3.9-3.4V76c-0.1-3.2,2-6.1,4.3-9.3c2.4-3.3,5.1-7,5.4-11.6h16.1c0.4,4.2,2.7,7.6,4.9,11c2,3.1,4.2,6.3,4.8,10.1v4.9l-3.9,3.4
		c-0.4,0.3-0.6,0.9-0.6,1.4v28.6c0,0.5,0.2,1,0.7,1.4l3.9,3.4V145.1z M146.3,145.1"/>
	<path class="st3" d="M134.2,88.8c-0.7-0.7-1.9-0.8-2.6-0.1l-8.7,8.1c-0.5,0.5-0.7,1.3-0.4,2c0.3,0.7,1,1.2,1.7,1.2h4l-5.3,5
		c-0.7,0.7-0.8,1.9-0.1,2.6c0.4,0.4,0.9,0.6,1.3,0.6c0.4,0,0.9-0.2,1.2-0.5l8.7-8.1c0.5-0.5,0.7-1.3,0.4-2c-0.3-0.7-1-1.2-1.7-1.2
		h-4l5.3-5C134.8,90.7,134.8,89.5,134.2,88.8L134.2,88.8z M134.2,88.8"/>
	<path class="st3" d="M117.6,134.5c1,0,1.8-0.8,1.8-1.8v-8.1c0-1-0.8-1.8-1.8-1.8c-1,0-1.8,0.8-1.8,1.8v8.1
		C115.7,133.7,116.6,134.5,117.6,134.5L117.6,134.5z M117.6,134.5"/>
</g>
</svg>
